<svg xmlns="http://www.w3.org/2000/svg" width="99.533" height="99.291" viewBox="0 0 99.533 99.291">
  <g id="_8.-Mktplace-Polos" data-name="8.-Mktplace-Polos" transform="translate(-106 278)">
    <g id="_Desktop-1240px_-0.0-Home-Copy" data-name="[Desktop-1240px]-0.0-Home-Copy" transform="translate(106 -278)">
      <g id="ilustracoes-_-features-_-mec" data-name="ilustracoes-/-features-/-mec" transform="translate(0 0)">
        <g id="Group" transform="translate(0 0)">
          <path id="Fill-1" d="M5.895,0A5.961,5.961,0,0,0,0,6.012v62.8a5.96,5.96,0,0,0,5.895,6.01H54.876a20.368,20.368,0,0,1-1.2-2.5H5.895a3.484,3.484,0,0,1-3.444-3.512V6.012A3.484,3.484,0,0,1,5.895,2.5H93.636a3.484,3.484,0,0,1,3.446,3.514v62.8a3.483,3.483,0,0,1-3.446,3.512H90.46a20.434,20.434,0,0,1-1.2,2.5h4.374a5.962,5.962,0,0,0,5.9-6.01V6.012A5.963,5.963,0,0,0,93.636,0Z" transform="translate(0 0)" fill="#fff" fill-rule="evenodd"/>
          <path id="Fill-4" d="M45.858,57.55A15.266,15.266,0,1,1,61.125,42.284,15.285,15.285,0,0,1,45.858,57.55m0-33.03A17.764,17.764,0,1,0,63.621,42.284,17.783,17.783,0,0,0,45.858,24.521" transform="translate(25.682 22.414)" fill="#fff" fill-rule="evenodd"/>
          <path id="Fill-6" d="M66.759,54.541,56.105,51.465,51.263,61.44l-4.391-9.863L42.479,61.44l-4.841-9.974L26.986,54.541l5.846-13.133a20.518,20.518,0,0,0,1.989,1.677l-3.367,7.566,7.511-2.171,3.419,7.036,3.763-8.456c.243.01.48.038.725.038.689,0,1.369-.036,2.04-.1l-.674,1.51,3.122,7.011,3.417-7.036,7.515,2.171-3.369-7.566a20.068,20.068,0,0,0,1.989-1.677Z" transform="translate(24.668 37.851)" fill="#fff" fill-rule="evenodd"/>
          <g id="Group-4" transform="translate(24.883 15.313)">
            <path id="Fill-9" d="M9,10.081c.142.314.279.637.408.965.13-.337.27-.664.413-.982s.295-.626.448-.926l4.3-8.46A1.4,1.4,0,0,1,14.8.338a.777.777,0,0,1,.27-.18A.939.939,0,0,1,15.407.1h3.405v16.72H15.389V7.2c0-.469.025-.974.069-1.516l-4.431,8.6a1.5,1.5,0,0,1-.557.611,1.569,1.569,0,0,1-.8.207h-.53a1.559,1.559,0,0,1-.8-.207,1.477,1.477,0,0,1-.557-.611L3.331,5.671c.031.268.054.536.069.8s.023.507.023.731v9.622H0V.1H3.405a.932.932,0,0,1,.339.056.777.777,0,0,1,.27.18,1.46,1.46,0,0,1,.237.339L8.558,9.172q.227.439.44.909" transform="translate(0 0.094)" fill="#fff" fill-rule="evenodd"/>
            <path id="Fill-11" d="M22.04.1V3.082H15.172v3.9h5.26V9.858h-5.26v3.985H22.04v2.986H11.267V.1Z" transform="translate(10.299 0.088)" fill="#fff" fill-rule="evenodd"/>
            <path id="Fill-13" d="M29.752,12.587a.79.79,0,0,1,.278.052.76.76,0,0,1,.262.178l1.539,1.619a6.4,6.4,0,0,1-2.53,1.993,8.877,8.877,0,0,1-3.6.672,8.561,8.561,0,0,1-3.415-.649A7.384,7.384,0,0,1,19.72,14.66a7.92,7.92,0,0,1-1.614-2.71,10.055,10.055,0,0,1-.563-3.405,8.977,8.977,0,0,1,.643-3.44,8.051,8.051,0,0,1,1.8-2.7A8.107,8.107,0,0,1,22.746.632,9.634,9.634,0,0,1,26.295,0a9.039,9.039,0,0,1,1.774.167,8.693,8.693,0,0,1,1.558.459,7.3,7.3,0,0,1,1.33.7,6.513,6.513,0,0,1,1.08.9L30.728,3.985a1.605,1.605,0,0,1-.3.293.775.775,0,0,1-.48.132.864.864,0,0,1-.392-.092c-.123-.061-.251-.136-.39-.224l-.454-.287a3.41,3.41,0,0,0-.586-.287,4.786,4.786,0,0,0-.792-.224,5.387,5.387,0,0,0-1.06-.092,4.867,4.867,0,0,0-1.931.373,4.206,4.206,0,0,0-1.5,1.068,4.926,4.926,0,0,0-.978,1.682,6.6,6.6,0,0,0-.35,2.217,6.89,6.89,0,0,0,.35,2.285,5.019,5.019,0,0,0,.953,1.682,4.045,4.045,0,0,0,1.407,1.039,4.215,4.215,0,0,0,1.725.356,8.293,8.293,0,0,0,.965-.052,3.963,3.963,0,0,0,.808-.178,3.745,3.745,0,0,0,.712-.327,4.65,4.65,0,0,0,.683-.5,1.4,1.4,0,0,1,.3-.189.782.782,0,0,1,.333-.075" transform="translate(16.037 0)" fill="#fff" fill-rule="evenodd"/>
          </g>
          <path id="Fill-15" d="M5.394,29.536H47.866V27.047H5.394Z" transform="translate(4.931 24.724)" fill="#fff" fill-rule="evenodd"/>
          <path id="Fill-17" d="M41.861,28.945l-2.217,7.1H32.469l5.805,4.389-2.218,7.1,5.805-4.387,5.805,4.387-2.217-7.1,5.805-4.389H44.079Z" transform="translate(29.679 26.459)" fill="#fff" fill-rule="evenodd"/>
          <path id="Fill-18" d="M15.346,34.59h2.5v-2.5h-2.5Z" transform="translate(14.028 29.337)" fill="#fff" fill-rule="evenodd"/>
          <path id="Fill-19" d="M15.524,34.089h1.815V32.272H15.524Z" transform="translate(14.19 29.5)" fill="#fff" fill-rule="evenodd"/>
          <path id="Fill-20" d="M12.029,34.59h2.5v-2.5h-2.5Z" transform="translate(10.996 29.337)" fill="#fff" fill-rule="evenodd"/>
          <path id="Fill-21" d="M8.712,34.59h2.5v-2.5h-2.5Z" transform="translate(7.963 29.337)" fill="#fff" fill-rule="evenodd"/>
          <path id="Fill-22" d="M5.394,34.59H7.888v-2.5H5.394Z" transform="translate(4.931 29.337)" fill="#fff" fill-rule="evenodd"/>
          <path id="Fill-23" d="M18.664,34.59h2.5v-2.5h-2.5Z" transform="translate(17.061 29.337)" fill="#fff" fill-rule="evenodd"/>
          <path id="Fill-24" d="M18.842,34.089h1.815V32.272H18.842Z" transform="translate(17.223 29.5)" fill="#fff" fill-rule="evenodd"/>
        </g>
      </g>
    </g>
  </g>
</svg>
